<?xml version="1.0" encoding="UTF-8"?><svg id="a" xmlns="http://www.w3.org/2000/svg" width="624.93" height="213" viewBox="0 0 624.93 213"><defs><style>.b{fill:#fff;}</style></defs><ellipse class="b" cx="183.97" cy="106.54" rx="26.8" ry="16.68"/><ellipse class="b" cx="174.66" cy="66.71" rx="25.49" ry="19.08" transform="translate(-9.95 96.27) rotate(-30)"/><ellipse class="b" cx="146.96" cy="35.02" rx="22.72" ry="19.08" transform="translate(43.15 144.78) rotate(-60)"/><ellipse class="b" cx="105.6" cy="47.18" rx="4.81" ry="46.1"/><ellipse class="b" cx="36.92" cy="106.54" rx="36.92" ry="7.79"/><ellipse class="b" cx="44.93" cy="141.64" rx="35.39" ry="8.3" transform="translate(-64.8 41.44) rotate(-30)"/><ellipse class="b" cx="74.27" cy="52.13" rx="5.53" ry="42.75" transform="translate(-16.11 44.12) rotate(-30)"/><ellipse class="b" cx="69.82" cy="168.59" rx="33.79" ry="9.54" transform="translate(-111.1 144.76) rotate(-60)"/><ellipse class="b" cx="48.37" cy="73.48" rx="6.12" ry="39.4" transform="translate(-39.45 78.63) rotate(-60)"/><ellipse class="b" cx="105.68" cy="179.29" rx="12.45" ry="32.63"/><ellipse class="b" cx="142.82" cy="170.92" rx="12.53" ry="30.88" transform="translate(-66.33 94.31) rotate(-30)"/><ellipse class="b" cx="171.51" cy="144.6" rx="14.49" ry="27.67" transform="translate(-39.47 220.83) rotate(-60)"/><path class="b" d="m305.5,42.99v104.86h58.98v12.53h-72.83V42.99h13.85Z"/><path class="b" d="m433.71,150.14c-7.78,8.11-17.69,12.21-29.65,12.21s-21.87-4.1-29.65-12.21c-7.7-8.03-11.55-18.76-11.55-32.28s3.85-24.25,11.55-32.28c7.78-8.11,17.69-12.21,29.65-12.21s21.87,4.1,29.65,12.21c7.7,8.03,11.55,18.76,11.55,32.28s-3.85,24.25-11.55,32.28Zm-49.56-8.44c4.92,5.82,11.55,8.77,19.91,8.77s14.99-2.95,19.91-8.77c4.92-5.73,7.45-13.68,7.45-23.92s-2.46-18.35-7.45-24.08c-4.92-5.73-11.63-8.6-19.91-8.6s-14.99,2.87-19.91,8.6-7.45,13.76-7.45,24.08,2.46,18.27,7.45,23.92Z"/><path class="b" d="m521.93,150.14c-7.78,8.11-17.69,12.21-29.65,12.21s-21.87-4.1-29.65-12.21c-7.7-8.03-11.55-18.76-11.55-32.28s3.85-24.25,11.55-32.28c7.78-8.11,17.69-12.21,29.65-12.21s21.87,4.1,29.65,12.21c7.7,8.03,11.55,18.76,11.55,32.28-.08,13.52-3.93,24.25-11.55,32.28Zm-49.64-8.44c4.92,5.82,11.63,8.77,19.91,8.77s14.99-2.95,19.91-8.77c4.92-5.73,7.45-13.68,7.45-23.92s-2.46-18.35-7.45-24.08c-4.92-5.73-11.63-8.6-19.91-8.6s-14.99,2.87-19.91,8.6c-4.92,5.73-7.45,13.76-7.45,24.08s2.54,18.27,7.45,23.92Z"/><path class="b" d="m585.01,73.3c11.96,0,21.63,4.01,28.84,12.04,7.13,8.11,10.73,18.92,10.73,32.44s-3.6,24.17-10.73,32.28c-7.29,8.11-16.88,12.21-28.84,12.21s-21.71-4.75-28.51-14.17v44.48h-13.19v-117.31h12.53v13.19c6.8-10.08,16.55-15.15,29.16-15.15h.01Zm-1.64,77.17c8.27,0,14.83-3.03,19.82-9.01,5-5.98,7.54-14.09,7.54-24.33s-2.46-17.86-7.37-23.51-11.55-8.52-19.99-8.52-14.99,2.87-19.91,8.6-7.45,13.76-7.45,24.08,2.46,18.19,7.45,23.92c4.92,5.82,11.55,8.77,19.91,8.77h0Z"/></svg>