<?xml version="1.0" encoding="utf-8"?>
<!-- Generator: Adobe Illustrator 27.5.0, SVG Export Plug-In . SVG Version: 6.00 Build 0)  -->
<svg version="1.1" id="a" xmlns="http://www.w3.org/2000/svg" xmlns:xlink="http://www.w3.org/1999/xlink" x="0px" y="0px"
	 viewBox="0 0 624.9 213" style="enable-background:new 0 0 624.9 213;" xml:space="preserve">
<style type="text/css">
	.st0{fill:#1A1A1A;}
</style>
<ellipse class="st0" cx="184" cy="106.5" rx="26.8" ry="16.7"/>
<ellipse transform="matrix(0.866 -0.5 0.5 0.866 -9.9543 96.2653)" class="st0" cx="174.7" cy="66.7" rx="25.5" ry="19.1"/>
<ellipse transform="matrix(0.5 -0.866 0.866 0.5 43.1532 144.784)" class="st0" cx="147" cy="35" rx="22.7" ry="19.1"/>
<ellipse class="st0" cx="105.6" cy="47.2" rx="4.8" ry="46.1"/>
<ellipse class="st0" cx="36.9" cy="106.5" rx="36.9" ry="7.8"/>
<ellipse transform="matrix(0.866 -0.5 0.5 0.866 -64.7976 41.4426)" class="st0" cx="44.9" cy="141.6" rx="35.4" ry="8.3"/>
<ellipse transform="matrix(0.866 -0.5 0.5 0.866 -16.1145 44.1216)" class="st0" cx="74.3" cy="52.1" rx="5.5" ry="42.8"/>
<ellipse transform="matrix(0.5 -0.866 0.866 0.5 -111.0958 144.7646)" class="st0" cx="69.8" cy="168.6" rx="33.8" ry="9.5"/>
<ellipse transform="matrix(0.5 -0.866 0.866 0.5 -39.4506 78.6303)" class="st0" cx="48.4" cy="73.5" rx="6.1" ry="39.4"/>
<ellipse class="st0" cx="105.7" cy="179.3" rx="12.4" ry="32.6"/>
<ellipse transform="matrix(0.866 -0.5 0.5 0.866 -66.3268 94.307)" class="st0" cx="142.8" cy="170.9" rx="12.5" ry="30.9"/>
<ellipse transform="matrix(0.5 -0.866 0.866 0.5 -39.4694 220.833)" class="st0" cx="171.5" cy="144.6" rx="14.5" ry="27.7"/>
<path class="st0" d="M305.5,43v104.9h59v12.5h-72.8V43H305.5L305.5,43z"/>
<path class="st0" d="M433.7,150.1c-7.8,8.1-17.7,12.2-29.6,12.2s-21.9-4.1-29.6-12.2c-7.7-8-11.5-18.8-11.5-32.3s3.9-24.2,11.5-32.3
	c7.8-8.1,17.7-12.2,29.6-12.2s21.9,4.1,29.6,12.2c7.7,8,11.5,18.8,11.5,32.3S441.4,142.1,433.7,150.1z M384.1,141.7
	c4.9,5.8,11.5,8.8,19.9,8.8s15-2.9,19.9-8.8c4.9-5.7,7.5-13.7,7.5-23.9S429,99.4,424,93.7c-4.9-5.7-11.6-8.6-19.9-8.6
	s-15,2.9-19.9,8.6s-7.5,13.8-7.5,24.1S379.2,136.1,384.1,141.7z"/>
<path class="st0" d="M521.9,150.1c-7.8,8.1-17.7,12.2-29.6,12.2s-21.9-4.1-29.6-12.2c-7.7-8-11.5-18.8-11.5-32.3s3.9-24.2,11.5-32.3
	c7.8-8.1,17.7-12.2,29.6-12.2s21.9,4.1,29.6,12.2c7.7,8,11.5,18.8,11.5,32.3C533.4,131.4,529.5,142.1,521.9,150.1z M472.3,141.7
	c4.9,5.8,11.6,8.8,19.9,8.8s15-2.9,19.9-8.8c4.9-5.7,7.5-13.7,7.5-23.9s-2.5-18.3-7.5-24.1c-4.9-5.7-11.6-8.6-19.9-8.6
	s-15,2.9-19.9,8.6c-4.9,5.7-7.5,13.8-7.5,24.1C464.8,128,467.4,136.1,472.3,141.7z"/>
<path class="st0" d="M585,73.3c12,0,21.6,4,28.8,12c7.1,8.1,10.7,18.9,10.7,32.4s-3.6,24.2-10.7,32.3c-7.3,8.1-16.9,12.2-28.8,12.2
	s-21.7-4.8-28.5-14.2v44.5h-13.2V75.3h12.5v13.2C562.6,78.4,572.4,73.3,585,73.3L585,73.3z M583.4,150.5c8.3,0,14.8-3,19.8-9
	c5-6,7.5-14.1,7.5-24.3s-2.5-17.9-7.4-23.5s-11.5-8.5-20-8.5s-15,2.9-19.9,8.6s-7.5,13.8-7.5,24.1s2.5,18.2,7.5,23.9
	C568.4,147.5,575,150.5,583.4,150.5L583.4,150.5z"/>
</svg>
